<svg width="781" height="781" viewBox="0 0 781 781" fill="none" xmlns="http://www.w3.org/2000/svg">
<path d="M149.632 653.411C149.632 653.411 349.67 606.746 485.948 225.968C553.184 138.515 598.398 204.348 584.478 289.431C575.459 344.561 503.223 548.411 260.098 692.004C181.306 734.151 149.632 653.411 149.632 653.411Z" fill="#E3E3E3"/>
<line x1="482.189" y1="711.259" x2="499.321" y2="715.075" stroke="#D1D1D1" stroke-width="6" stroke-linecap="round"/>
<path d="M490.073 579.603C490.073 579.603 534.592 582.223 584.349 632.012C573.874 676.561 427.222 825.929 366.99 695.952C429.841 676.561 497.93 582.223 490.073 579.603Z" fill="#E3E3E3"/>
<path d="M520.459 204.556C485.544 221.742 440.739 275.112 398.704 418.503C371.787 500.137 359.067 560.904 355.923 606.293C352.78 651.679 359.2 681.85 370.739 702.138C390.541 736.953 425.144 742 449.389 745.536C450.183 745.651 450.965 745.765 451.736 745.879C415.332 755.095 370.005 753.782 332.814 730.886C292.745 706.22 261.636 656.195 261.636 565.904C261.636 475.468 285.644 389.038 313.282 320.916C340.934 252.759 372.147 203.108 386.398 186.22C400.746 169.217 423.939 147.354 455.632 143.502C485.505 139.871 523.594 152.182 569.67 201.266C567.825 200.54 565.76 199.845 563.491 199.25C552.916 196.479 537.989 195.927 520.459 204.556Z" fill="url(#paint0_linear)" stroke="black" stroke-width="4"/>
<line x1="501.447" y1="652.474" x2="551.945" y2="665.098" stroke="#D1D1D1" stroke-width="6" stroke-linecap="round"/>
<path d="M239.477 693.41C248.684 693.927 257.504 692.614 265.433 689.221C241.898 704.413 212.678 709.704 184.383 708.078C148.437 706.012 114.102 692.787 94.973 674.666L94.9421 674.636L94.9067 674.613C54.2842 647.504 40.3316 603.072 34.8968 564.999C29.4678 513.35 40.3331 442.633 59.3525 390.957C64.4923 376.992 70.2307 363.019 76.5667 347.59C93.6827 305.913 115.159 253.618 140.974 162.182C158.673 99.4891 154.614 62.6055 146.057 41.3631C141.778 30.7411 136.38 24.043 132.035 19.9952C130.078 18.1719 128.336 16.8876 127.009 16.0252C157.025 21.7368 183.755 34.3367 204.113 50.1144C225.14 66.4093 239.328 86.0588 243.375 104.966C251.505 142.946 243.387 205.964 210.751 295.805C178.11 385.659 145.488 481.43 134.598 555.011C127.209 604.936 153.328 648.511 186.832 672.865C203.586 685.044 222.218 692.44 239.477 693.41Z" fill="url(#paint1_linear)" stroke="black"/>
<line x1="393.871" y1="182.63" x2="411.003" y2="186.445" stroke="white" stroke-width="6" stroke-linecap="round"/>
<line x1="538.508" y1="337.507" x2="555.64" y2="341.322" stroke="#D1D1D1" stroke-width="6" stroke-linecap="round"/>
<line x1="480.909" y1="453.984" x2="498.041" y2="457.8" stroke="#D1D1D1" stroke-width="6" stroke-linecap="round"/>
<line x1="393.871" y1="571.742" x2="411.003" y2="575.558" stroke="#D1D1D1" stroke-width="6" stroke-linecap="round"/>
<line x1="243.376" y1="684.68" x2="261.323" y2="688.678" stroke="#D1D1D1" stroke-width="6" stroke-linecap="round"/>
<line x1="319.632" y1="310.627" x2="336.764" y2="314.442" stroke="white" stroke-width="6" stroke-linecap="round"/>
<line x1="279.161" y1="458.045" x2="297.108" y2="462.042" stroke="white" stroke-width="6" stroke-linecap="round"/>
<line x1="277.393" y1="649.82" x2="294.525" y2="653.636" stroke="white" stroke-width="6" stroke-linecap="round"/>
<line x1="153.305" y1="133.332" x2="171.251" y2="137.329" stroke="white" stroke-width="6" stroke-linecap="round"/>
<line x1="114.815" y1="260.564" x2="132.815" y2="264.564" stroke="white" stroke-width="6" stroke-linecap="round"/>
<line x1="60.5705" y1="402.534" x2="78.3806" y2="407.307" stroke="white" stroke-width="6" stroke-linecap="round"/>
<line x1="40.4682" y1="566.534" x2="58.4063" y2="569.524" stroke="white" stroke-width="6" stroke-linecap="round"/>
<line x1="354.249" y1="242.881" x2="404.747" y2="255.506" stroke="white" stroke-width="6" stroke-linecap="round"/>
<line x1="527.046" y1="268.481" x2="577.544" y2="281.105" stroke="#D1D1D1" stroke-width="6" stroke-linecap="round"/>
<line x1="484.807" y1="383.679" x2="535.305" y2="396.304" stroke="#D1D1D1" stroke-width="6" stroke-linecap="round"/>
<line x1="411.848" y1="500.157" x2="462.346" y2="512.781" stroke="#D1D1D1" stroke-width="6" stroke-linecap="round"/>
<line x1="295.37" y1="382.399" x2="345.868" y2="395.024" stroke="white" stroke-width="6" stroke-linecap="round"/>
<line x1="264.651" y1="552.636" x2="315.149" y2="565.26" stroke="white" stroke-width="6" stroke-linecap="round"/>
<line x1="89.6796" y1="326.907" x2="138.19" y2="338.739" stroke="white" stroke-width="6" stroke-linecap="round"/>
<line x1="138.678" y1="197.021" x2="187.189" y2="208.853" stroke="white" stroke-width="6" stroke-linecap="round"/>
<line x1="40.6413" y1="480.648" x2="89.1519" y2="492.48" stroke="white" stroke-width="6" stroke-linecap="round"/>
<!-- <path d="M915.596 384.892V528H876.228V510.976C870.731 517.183 864.17 521.971 856.544 525.34C848.919 528.532 840.673 530.128 831.806 530.128C813.009 530.128 798.113 524.719 787.118 513.902C776.124 503.085 770.626 487.036 770.626 465.756V384.892H812.122V459.638C812.122 482.691 821.787 494.218 841.116 494.218C851.047 494.218 859.027 491.026 865.056 484.642C871.086 478.081 874.1 468.416 874.1 455.648V384.892H915.596ZM1038.63 382.764C1051.93 382.764 1063.99 385.867 1074.8 392.074C1085.8 398.103 1094.4 406.704 1100.61 417.876C1106.81 428.871 1109.92 441.727 1109.92 456.446C1109.92 471.165 1106.81 484.11 1100.61 495.282C1094.4 506.277 1085.8 514.877 1074.8 521.084C1063.99 527.113 1051.93 530.128 1038.63 530.128C1020.36 530.128 1006 524.365 995.536 512.838V579.604H954.04V384.892H993.674V401.384C1003.96 388.971 1018.94 382.764 1038.63 382.764ZM1031.45 496.08C1042.09 496.08 1050.78 492.533 1057.51 485.44C1064.43 478.169 1067.89 468.505 1067.89 456.446C1067.89 444.387 1064.43 434.811 1057.51 427.718C1050.78 420.447 1042.09 416.812 1031.45 416.812C1020.81 416.812 1012.03 420.447 1005.11 427.718C998.373 434.811 995.004 444.387 995.004 456.446C995.004 468.505 998.373 478.169 1005.11 485.44C1012.03 492.533 1020.81 496.08 1031.45 496.08ZM1189.03 530.128C1172.89 530.128 1160.3 525.872 1151.26 517.36C1142.22 508.671 1137.69 496.435 1137.69 480.652V330.628H1179.19V478.258C1179.19 484.287 1180.7 488.987 1183.71 492.356C1186.9 495.548 1191.34 497.144 1197.01 497.144C1199.14 497.144 1201.27 496.878 1203.4 496.346C1205.7 495.814 1207.47 495.193 1208.72 494.484L1210.58 526.67C1203.66 528.975 1196.48 530.128 1189.03 530.128ZM1373.59 384.892V528H1333.95V511.508C1323.67 523.921 1308.77 530.128 1289.27 530.128C1275.79 530.128 1263.55 527.113 1252.56 521.084C1241.74 515.055 1233.23 506.454 1227.02 495.282C1220.82 484.11 1217.71 471.165 1217.71 456.446C1217.71 441.727 1220.82 428.782 1227.02 417.61C1233.23 406.438 1241.74 397.837 1252.56 391.808C1263.55 385.779 1275.79 382.764 1289.27 382.764C1307.53 382.764 1321.81 388.527 1332.09 400.054V384.892H1373.59ZM1296.45 496.08C1306.91 496.08 1315.6 492.533 1322.52 485.44C1329.43 478.169 1332.89 468.505 1332.89 456.446C1332.89 444.387 1329.43 434.811 1322.52 427.718C1315.6 420.447 1306.91 416.812 1296.45 416.812C1285.81 416.812 1277.03 420.447 1270.11 427.718C1263.2 434.811 1259.74 444.387 1259.74 456.446C1259.74 468.505 1263.2 478.169 1270.11 485.44C1277.03 492.533 1285.81 496.08 1296.45 496.08ZM1451.64 403.778C1456.61 396.862 1463.26 391.631 1471.59 388.084C1480.1 384.537 1489.86 382.764 1500.85 382.764V421.068C1496.24 420.713 1493.14 420.536 1491.54 420.536C1479.66 420.536 1470.35 423.905 1463.61 430.644C1456.87 437.205 1453.5 447.136 1453.5 460.436V528H1412.01V384.892H1451.64V403.778ZM1669.46 384.892V528H1629.83V511.508C1619.54 523.921 1604.65 530.128 1585.14 530.128C1571.66 530.128 1559.43 527.113 1548.43 521.084C1537.61 515.055 1529.1 506.454 1522.9 495.282C1516.69 484.11 1513.59 471.165 1513.59 456.446C1513.59 441.727 1516.69 428.782 1522.9 417.61C1529.1 406.438 1537.61 397.837 1548.43 391.808C1559.43 385.779 1571.66 382.764 1585.14 382.764C1603.4 382.764 1617.68 388.527 1627.97 400.054V384.892H1669.46ZM1592.32 496.08C1602.78 496.08 1611.47 492.533 1618.39 485.44C1625.31 478.169 1628.76 468.505 1628.76 456.446C1628.76 444.387 1625.31 434.811 1618.39 427.718C1611.47 420.447 1602.78 416.812 1592.32 416.812C1581.68 416.812 1572.9 420.447 1565.99 427.718C1559.07 434.811 1555.61 444.387 1555.61 456.446C1555.61 468.505 1559.07 478.169 1565.99 485.44C1572.9 492.533 1581.68 496.08 1592.32 496.08Z" fill="black"/> -->
<defs>
<linearGradient id="paint0_linear" x1="375.976" y1="141.386" x2="416.493" y2="753.579" gradientUnits="userSpaceOnUse">
<stop/>
<stop offset="1"/>
</linearGradient>
<linearGradient id="paint1_linear" x1="113.725" y1="15.5368" x2="190.708" y2="698.262" gradientUnits="userSpaceOnUse">
<stop/>
<stop offset="1"/>
</linearGradient>
</defs>
</svg>
